<svg version="1.1" xmlns="http://www.w3.org/2000/svg" xmlns:xlink="http://www.w3.org/1999/xlink" width="46.31897" height="56.27381" viewBox="0,0,46.31897,56.27381"><defs><linearGradient x1="217.41963" y1="180" x2="262.58036" y2="180" gradientUnits="userSpaceOnUse" id="color-1"><stop offset="0" stop-color="#2b4bed"/><stop offset="1" stop-color="#821111"/></linearGradient><linearGradient x1="217.41963" y1="180.00001" x2="262.58037" y2="180.00001" gradientUnits="userSpaceOnUse" id="color-2"><stop offset="0" stop-color="#821111"/><stop offset="1" stop-color="#2b4bed"/></linearGradient></defs><g transform="translate(-216.84052,-151.8623)"><g data-paper-data="{&quot;isPaintingLayer&quot;:true}" fill="url(#color-1)" fill-rule="nonzero" stroke="url(#color-2)" stroke-width="1.15823" stroke-linecap="butt" stroke-linejoin="miter" stroke-miterlimit="10" stroke-dasharray="" stroke-dashoffset="0" style="mix-blend-mode: normal"><path d="M225.93622,178.79484c-1.87746,1.97676 -5.00366,2.05576 -6.98007,0.17639c-1.97769,-1.87844 -2.05666,-5.00374 -0.17643,-6.98147c7.41854,-7.8031 17.12541,-18.01288 17.12541,-18.01288c1.87847,-1.97629 5.00418,-2.05527 6.98097,-0.17641c0,0 11.83222,11.24768 18.15861,17.26307c1.9768,1.87886 2.05526,5.00378 0.17643,6.98147c-1.87886,1.9767 -5.00417,2.05567 -6.98097,0.17641c-7.8027,-7.41855 -9.51396,-9.02613 -9.51396,-9.02613c0,0 0.6108,24.57381 0.83132,33.30033c0.0689,2.72653 -2.08494,4.99246 -4.81147,5.06137c-2.72603,0.06889 -4.99247,-2.08534 -5.06138,-4.81187c-0.26304,-10.40868 -0.8325,-33.32711 -0.8325,-33.32711c0,0 -2.89869,3.0494 -8.91596,9.37683z"/></g></g></svg>