<svg version="1.1" xmlns="http://www.w3.org/2000/svg" xmlns:xlink="http://www.w3.org/1999/xlink" width="46.32523" height="56.28495" viewBox="0,0,46.32523,56.28495"><defs><linearGradient x1="217.4165" y1="180.00001" x2="262.5835" y2="180.00001" gradientUnits="userSpaceOnUse" id="color-1"><stop offset="0" stop-color="#2b4bed"/><stop offset="1" stop-color="#821111"/></linearGradient><linearGradient x1="217.4165" y1="180" x2="262.5835" y2="180" gradientUnits="userSpaceOnUse" id="color-2"><stop offset="0" stop-color="#821111"/><stop offset="1" stop-color="#2b4bed"/></linearGradient></defs><g transform="translate(-216.83739,-151.85777)"><g data-paper-data="{&quot;isPaintingLayer&quot;:true}" fill="url(#color-1)" fill-rule="nonzero" stroke="url(#color-2)" stroke-width="1.15823" stroke-linecap="butt" stroke-linejoin="miter" stroke-miterlimit="10" stroke-dasharray="" stroke-dashoffset="0" style="mix-blend-mode: normal"><path d="M254.10599,181.36623c1.8999,-1.9552 5.0268,-1.99851 6.98163,-0.0967c1.95611,1.90089 1.99941,5.02689 0.09672,6.98303c-7.50713,7.71791 -17.32992,17.81621 -17.32992,17.81621c-1.90091,1.95471 -5.02731,1.99802 -6.98253,0.09671c0,0 -11.70305,-11.38201 -17.96036,-17.46924c-1.95522,-1.9013 -1.99801,-5.02691 -0.09672,-6.98303c1.90131,-1.95512 5.02731,-1.99842 6.98253,-0.09671c7.71751,7.50714 9.4103,9.13415 9.4103,9.13415c0,0 -0.33023,-24.57918 -0.45112,-33.30765c-0.03777,-2.72714 2.1418,-4.96834 4.86894,-5.00611c2.72664,-0.03777 4.96834,2.1422 5.00612,4.86934c0.1442,10.411 0.45199,33.33444 0.45199,33.33444c0,0 2.93331,-3.01611 9.02242,-9.27444z"/></g></g></svg>