<svg version="1.1" xmlns="http://www.w3.org/2000/svg" xmlns:xlink="http://www.w3.org/1999/xlink" width="46.32647" height="56.28963" viewBox="0,0,46.32647,56.28963"><defs><linearGradient x1="217.85965" y1="180.2209" x2="263.02789" y2="180.2209" gradientUnits="userSpaceOnUse" id="color-1"><stop offset="0" stop-color="#3eed2b"/><stop offset="1" stop-color="#811150"/></linearGradient><linearGradient x1="217.85965" y1="180.2209" x2="263.02789" y2="180.2209" gradientUnits="userSpaceOnUse" id="color-2"><stop offset="0" stop-color="#7b284d"/><stop offset="1" stop-color="#47d230"/></linearGradient></defs><g transform="translate(-217.28054,-152.07609)"><g data-paper-data="{&quot;isPaintingLayer&quot;:true}" fill="url(#color-1)" fill-rule="nonzero" stroke="url(#color-2)" stroke-width="1.15823" stroke-linecap="butt" stroke-linejoin="miter" stroke-miterlimit="10" stroke-dasharray="" stroke-dashoffset="0" style="mix-blend-mode: normal"><path d="M226.2865,178.6492c-1.9282,1.9273 -5.0554,1.925 -6.9822,-0.0051c-1.9282,-1.9292 -1.9259,-5.0555 0.0051,-6.9837c7.6188,-7.6077 17.5877,-17.5616 17.5877,-17.5616c1.9292,-1.9268 5.056,-1.9245 6.9832,0.0051c0,0 11.5359,11.5513 17.7038,17.7292c1.9273,1.9296 1.9245,5.0554 -0.0051,6.9836c-1.9296,1.9273 -5.0559,1.925 -6.9832,-0.0051c-7.6072,-7.6188 -9.2762,-9.2703 -9.2762,-9.2703c0,0 -0.0281,24.5813 -0.0345,33.3107c-0.002,2.7274 -2.2139,4.9366 -4.9413,4.9346c-2.727,-0.002 -4.9366,-2.2145 -4.9347,-4.9418c0.0076,-10.412 0.0341,-33.3375 0.0341,-33.3375c0,0 -2.977,2.973 -9.1567,9.1419z"/></g></g></svg>